<svg width="24" height="25" viewBox="0 0 24 25" fill="none" xmlns="http://www.w3.org/2000/svg">
<path d="M18.0163 6.39505C16.8795 5.81367 15.6769 5.40058 14.4403 5.16669C14.2863 5.47109 14.1063 5.88052 13.9822 6.20624C12.6489 5.9871 11.3278 5.9871 10.019 6.20624C9.89499 5.8806 9.71096 5.47109 9.5555 5.16669C8.31765 5.40068 7.11405 5.81483 5.97678 6.39808C3.71369 10.1363 3.10019 13.7816 3.40691 17.3752C4.90793 18.6005 6.36258 19.3448 7.79271 19.8319C8.14814 19.2976 8.46232 18.732 8.73203 18.1408C8.21855 17.9271 7.72353 17.6638 7.25288 17.3539C7.37673 17.2536 7.49768 17.149 7.61552 17.0403C10.4675 18.4985 13.5664 18.4985 16.3844 17.0403C16.5028 17.1483 16.6237 17.2528 16.747 17.3539C16.2756 17.6646 15.7796 17.9285 15.2651 18.1424C15.5364 18.7359 15.85 19.3021 16.2045 19.8334C17.6359 19.3464 19.0919 18.602 20.593 17.3752C20.9529 13.2093 19.9782 9.5975 18.0163 6.39505ZM9.12061 15.1652C8.26444 15.1652 7.5623 14.2915 7.5623 13.2276C7.5623 12.1637 8.24947 11.2885 9.12061 11.2885C9.99181 11.2885 10.6939 12.1621 10.6789 13.2276C10.6803 14.2915 9.99181 15.1652 9.12061 15.1652ZM14.8793 15.1652C14.0231 15.1652 13.321 14.2915 13.321 13.2276C13.321 12.1637 14.0081 11.2885 14.8793 11.2885C15.7505 11.2885 16.4525 12.1621 16.4376 13.2276C16.4376 14.2915 15.7505 15.1652 14.8793 15.1652Z" fill="#21242E"/>
</svg>
