<svg width="24" height="24" viewBox="0 0 24 24" fill="none" xmlns="http://www.w3.org/2000/svg">
<path d="M19.921 5.20324C19.9149 5.17362 19.9004 5.14637 19.8793 5.1247C19.8582 5.10303 19.8314 5.08783 19.802 5.0809C17.8411 4.60092 13.3114 6.31115 10.8547 8.76804C10.4169 9.20264 10.0177 9.67453 9.66156 10.1784C8.90433 10.1098 8.1471 10.1675 7.50237 10.449C5.68176 11.2502 5.15206 13.3426 5.00422 14.2408C4.99621 14.2901 4.99963 14.3405 5.01422 14.3881C5.02881 14.4358 5.05417 14.4795 5.08834 14.5158C5.12251 14.5521 5.16457 14.58 5.21127 14.5974C5.25796 14.6148 5.30803 14.6212 5.3576 14.6162L8.28088 14.295C8.2829 14.5156 8.29614 14.7361 8.32054 14.9554C8.3358 15.107 8.40338 15.2485 8.51165 15.3556L9.64353 16.4884C9.75064 16.5969 9.89219 16.6645 10.0438 16.6797C10.2616 16.704 10.4805 16.7172 10.6997 16.7194L10.3791 19.6425C10.3741 19.6921 10.3806 19.7421 10.398 19.7888C10.4154 19.8354 10.4432 19.8774 10.4795 19.9116C10.5157 19.9457 10.5592 19.9711 10.6068 19.9857C10.6544 20.0003 10.7047 20.0038 10.7538 19.9958C11.6516 19.8515 13.7467 19.3214 14.5425 17.4996C14.8237 16.8536 14.8814 16.0997 14.8165 15.3455C15.3214 14.9894 15.7943 14.5898 16.2297 14.1513C18.6953 11.6973 20.3934 7.26352 19.921 5.20324ZM14.038 10.9723C13.8226 10.7568 13.676 10.4822 13.6165 10.1833C13.5571 9.88439 13.5876 9.57453 13.7041 9.29294C13.8206 9.01134 14.018 8.77065 14.2712 8.60131C14.5244 8.43197 14.8221 8.34159 15.1266 8.34159C15.4312 8.34159 15.7289 8.43197 15.9821 8.60131C16.2353 8.77065 16.4326 9.01134 16.5492 9.29294C16.6657 9.57453 16.6962 9.88439 16.6367 10.1833C16.5773 10.4822 16.4306 10.7568 16.2152 10.9723C16.0724 11.1156 15.9027 11.2293 15.7159 11.3068C15.5291 11.3844 15.3289 11.4243 15.1266 11.4243C14.9244 11.4243 14.7241 11.3844 14.5373 11.3068C14.3505 11.2293 14.1809 11.1156 14.038 10.9723Z" stroke="#9B9BB0" stroke-width="1.2" stroke-linecap="round" stroke-linejoin="round"/>
<path d="M6.64572 16.2588C6.28625 16.303 5.95184 16.466 5.69557 16.7222C5.06022 17.3602 5 19.7233 5 19.7233C5 19.7233 7.36257 19.663 7.99828 19.0264C8.25523 18.7703 8.41846 18.4351 8.46164 18.0748" stroke="#9B9BB0" stroke-width="1.2" stroke-linecap="round" stroke-linejoin="round"/>
</svg>
