<svg width="24" height="25" viewBox="0 0 24 25" fill="none" xmlns="http://www.w3.org/2000/svg">
<path fill-rule="evenodd" clip-rule="evenodd" d="M20.954 7.22757C20.2924 7.51953 19.5826 7.71774 18.838 7.80613C19.5987 7.35078 20.1826 6.62759 20.4558 5.76779C19.7433 6.19099 18.9558 6.49634 18.1175 6.66241C17.4452 5.94725 16.4889 5.49994 15.4282 5.49994C13.3953 5.49994 11.7453 7.1499 11.7453 9.18288C11.7453 9.47216 11.7774 9.7534 11.8417 10.0212C8.78021 9.86857 6.06688 8.40076 4.25086 6.17224C3.9348 6.71598 3.75266 7.3481 3.75266 8.02309C3.75266 9.30073 4.40353 10.4284 5.3919 11.0873C4.78924 11.0685 4.2214 10.9025 3.7232 10.6266C3.7232 10.6427 3.7232 10.6561 3.7232 10.6721C3.7232 12.456 4.9928 13.9453 6.67758 14.2827C6.36955 14.3658 6.04278 14.4113 5.70796 14.4113C5.46958 14.4113 5.23923 14.3872 5.01423 14.3443C5.48297 15.8068 6.84365 16.8729 8.45343 16.9023C7.19185 17.8907 5.60618 18.48 3.87855 18.48C3.58123 18.48 3.28928 18.4612 3 18.4291C4.62853 19.4737 6.56509 20.0844 8.64628 20.0844C15.4202 20.0844 19.1246 14.4729 19.1246 9.60608C19.1246 9.44537 19.1219 9.28734 19.1139 9.12931C19.8344 8.60968 20.4585 7.96148 20.9513 7.22222L20.954 7.22757Z" fill="#21242E"/>
</svg>
